<?xml version="1.0" encoding="utf-8"?>
<!-- Generator: Adobe Illustrator 25.2.0, SVG Export Plug-In . SVG Version: 6.00 Build 0)  -->
<svg version="1.1" id="Layer_1" xmlns="http://www.w3.org/2000/svg" xmlns:xlink="http://www.w3.org/1999/xlink" x="0px" y="0px"
	 viewBox="0 0 926.7 627.7" style="enable-background:new 0 0 926.7 627.7;" xml:space="preserve">
<style type="text/css">
	.st0{fill:#211915;stroke:#FEF1F1;stroke-miterlimit:10;}
	.st1{fill:#1B277F;stroke:#FEF1F1;stroke-miterlimit:10;}
	.st2{fill:#C2303B;stroke:#FEF1F1;stroke-miterlimit:10;}
	.st3{fill:#1C8D45;stroke:#FEF1F1;stroke-miterlimit:10;}
	.st4{fill:#1991BC;stroke:#FEF1F1;stroke-miterlimit:10;}
	.st5{fill:#BE2B78;stroke:#FEF1F1;stroke-miterlimit:10;}
	.st6{fill:#65247F;stroke:#FEF1F1;stroke-miterlimit:10;}
	.st7{fill:#53B200;stroke:#FEF1F1;stroke-miterlimit:10;}
	.st8{fill:#D58533;stroke:#FEF1F1;stroke-miterlimit:10;}
	.st9{fill:#169088;stroke:#FEF1F1;stroke-miterlimit:10;}
	.st10{fill:#E9DC27;stroke:#FEF1F1;stroke-miterlimit:10;}
	.st11{fill:#0C5E33;stroke:#FEF1F1;stroke-miterlimit:10;}
	.st12{fill:#0E67A3;stroke:#FEF1F1;stroke-miterlimit:10;}
	.st13{fill:#E5DB27;stroke:#FEF1F1;stroke-miterlimit:10;}
	.st14{fill:#116AA3;stroke:#FEF1F1;stroke-miterlimit:10;}
	.st15{fill:#8C5B33;stroke:#FEF1F1;stroke-miterlimit:10;}
	.st16{fill:#E7DE28;stroke:#FEF1F1;stroke-miterlimit:10;}
	.st17{fill:#C9593A;stroke:#FEF1F1;stroke-miterlimit:10;}
	.st18{fill:#925E38;stroke:#FEF1F1;stroke-miterlimit:10;}
	.st19{fill:#BE2C7C;stroke:#FEF1F1;stroke-miterlimit:10;}
	.st20{fill:#FFFFFF;stroke:#000000;stroke-miterlimit:10;}
	.st21{font-family:'ArialMT';}
	.st22{font-size:147.99px;}
</style>
<g id="Capa_2">
	<g id="Capa_1-2">
		<path class="st0" d="M194.8,228.4v-50.7c15.3-0.1,26.9-4.7,34.6-13.6c7.8-9,11.6-29.1,11.6-60.3c0-23.8,0.9-41.4,2.6-52.9
			s6-21.1,12.8-28.8c7-7.9,16.1-13.7,26.2-16.8C293.4,1.7,308.5,0,328.1,0h11.2v50.5c-20.4,0-32.6,2.1-36.6,6.3
			c-4,4.2-6.2,12.5-6.4,24.7c-0.9,33.8-1.9,55.8-3.3,65.9c-1.3,10.1-4.5,20-9.3,29c-4.9,9.3-13.9,18.1-27.1,26.5
			c12.5,7.6,21.7,16.7,27.4,27.2s9,25.8,10,45.6l3.2,61.5c1,5.5,4.3,10.4,9.1,13.4c4.8,3,15.8,4.5,33,4.5V406h-11
			c-22.5,0-39.9-2.6-52.2-7.7c-12.2-5.1-21.1-13.5-26.6-25.2c-5.5-11.7-8.2-30.6-8.2-56.6c0-28.7-1-47.1-3-55.1
			c-2-8.1-5.9-15.7-11.4-22.1C221.1,232.5,210.4,228.9,194.8,228.4z"/>
		<path class="st0" d="M700,241.3c-5.5,6.4-9.4,13.9-11.4,22.1c-2,8-3,26.4-3,55.1c0,26.1-2.7,44.9-8.2,56.6
			c-5.3,11.5-14.8,20.5-26.6,25.2c-12.3,5.1-29.7,7.7-52.2,7.7h-11v-50.7c17.2,0,28.2-1.5,33-4.5c4.8-3,8.1-7.9,9.1-13.4l3.2-61.4
			c1-19.9,4.3-35.1,10-45.6s14.8-19.6,27.4-27.2c-13.2-8.4-22.3-17.3-27.2-26.5c-4.8-9.1-7.9-18.9-9.3-29.1
			c-1.3-10.1-2.4-32.1-3.3-65.9c-0.3-12.2-2.4-20.5-6.5-24.7s-16.2-6.3-36.7-6.3V2.1h11.2c19.6,0,34.8,1.7,45.4,5.2
			c10.1,3.1,19.2,8.9,26.2,16.8c6.8,7.8,11,17.4,12.8,28.9s2.6,29.1,2.6,52.9c0,31.3,3.9,51.4,11.6,60.3
			c7.7,8.9,19.3,13.5,34.6,13.6v50.7C716.3,231,705.6,234.6,700,241.3z"/>
		<path class="st1" d="M383.7,89.2h12.1c14.2,0,25.8,11.5,25.8,25.8v6.9c0,14.2-11.5,25.8-25.8,25.8h-12.1
			c-14.2,0-25.8-11.5-25.8-25.8V115C358,100.8,369.5,89.2,383.7,89.2z"/>
		<path class="st2" d="M538.7,62.3H555c13.1,0,23.6,10.6,23.6,23.6v11.2c0,13.1-10.6,23.6-23.6,23.6h-16.4
			c-13.1,0-23.6-10.6-23.6-23.6V86C515,72.9,525.6,62.3,538.7,62.3z"/>
		<path class="st3" d="M530.1,236.9h21.5c11.7,0,21.1,9.4,21.1,21.1v16.3c0,11.7-9.4,21.1-21.1,21.1h-21.5
			c-11.7,0-21.1-9.4-21.1-21.1V258C509,246.3,518.5,236.9,530.1,236.9z"/>
		<path class="st4" d="M442.7,172.1h21.5c11.6,0,21.1,9.4,21.1,21.1v16.4c0,11.6-9.4,21.1-21.1,21.1h-21.5
			c-11.6,0-21.1-9.4-21.1-21.1v-16.4C421.6,181.5,431.1,172.1,442.7,172.1z"/>
		<path class="st5" d="M382.7,283.5h14.1c13.7,0,24.8,11.1,24.8,24.8v8.9c0,13.7-11.1,24.8-24.8,24.8h-14.1
			c-13.7,0-24.8-11.1-24.8-24.8v-8.9C358,294.6,369,283.5,382.7,283.5z"/>
		<path class="st6" d="M386.4,204.6h6.7c7.7,0,14,6.3,14,14v4.3c0,7.7-6.3,14-14,14h-6.7c-7.7,0-14-6.3-14-14v-4.3
			C372.4,210.9,378.7,204.6,386.4,204.6z"/>
		<path class="st7" d="M324.7,193.4h6c7.9,0,14.4,6.4,14.4,14.4v3.6c0,7.9-6.4,14.4-14.4,14.4h-6c-7.9,0-14.4-6.4-14.4-14.4v-3.6
			C310.4,199.8,316.8,193.4,324.7,193.4z"/>
		<path class="st8" d="M526.8,158.2H538c6.5,0,11.7,5.3,11.7,11.7v8.8c0,6.5-5.3,11.7-11.7,11.7h-11.3c-6.5,0-11.7-5.3-11.7-11.7
			V170C515,163.5,520.3,158.2,526.8,158.2z"/>
		<path class="st9" d="M462.6,86.9h11.5c6.4,0,11.6,5.2,11.6,11.6v9.1c0,6.4-5.2,11.6-11.6,11.6h-11.5c-6.4,0-11.6-5.2-11.6-11.6
			v-9.1C450.9,92.1,456.1,86.9,462.6,86.9z"/>
		<path class="st10" d="M454.5,274.1h4.2c8.4,0,15.3,6.8,15.3,15.3v1.7c0,8.4-6.8,15.3-15.3,15.3h-4.2c-8.4,0-15.3-6.8-15.3-15.3
			v-1.7C439.2,280.9,446.1,274.1,454.5,274.1z"/>
		<path class="st2" d="M516.3,319.6h4.2c8.4,0,15.3,6.8,15.3,15.3v1.8c0,8.4-6.8,15.3-15.3,15.3h-4.2c-8.4,0-15.3-6.8-15.3-15.3
			v-1.8C501.1,326.5,507.9,319.6,516.3,319.6z"/>
		<path class="st11" d="M382.1,167.6h3.8c3.4,0,6.1,2.8,6.1,6.1v0.8c0,3.4-2.8,6.1-6.1,6.1h-3.8c-3.4,0-6.1-2.8-6.1-6.1v-0.8
			C375.9,170.3,378.7,167.6,382.1,167.6z"/>
		<path class="st12" d="M477.6,141.2h5.3c3,0,5.4,2.4,5.4,5.4v2.3c0,3-2.4,5.4-5.4,5.4h-5.3c-3,0-5.4-2.4-5.4-5.4v-2.3
			C472.2,143.6,474.7,141.2,477.6,141.2z"/>
		<path class="st13" d="M582.4,203h5.4c2.9,0,5.3,2.4,5.3,5.3v2.4c0,2.9-2.4,5.3-5.3,5.3h-5.4c-2.9,0-5.3-2.4-5.3-5.3v-2.4
			C577.1,205.4,579.5,203,582.4,203z"/>
		<path class="st14" d="M512.5,209.6h5c3.1,0,5.5,2.5,5.5,5.6v2c0,3.1-2.5,5.6-5.5,5.6h-5c-3.1,0-5.6-2.5-5.6-5.6v-2
			C507,212,509.5,209.6,512.5,209.6z"/>
		<path class="st15" d="M482.3,245.9h3.6c3.4,0,6.2,2.8,6.2,6.2v0.6c0,3.4-2.8,6.2-6.2,6.2h-3.6c-3.4,0-6.2-2.8-6.2-6.2v-0.6
			C476.1,248.7,478.9,245.9,482.3,245.9z"/>
		<path class="st16" d="M421.9,252.5h4.1c3.3,0,6,2.7,6,6v1.1c0,3.3-2.7,6-6,6h-4.1c-3.3,0-6-2.7-6-6v-1.1
			C416,255.2,418.6,252.5,421.9,252.5z"/>
		<path class="st17" d="M365.4,253.6h3.4c3.5,0,6.3,2.8,6.3,6.3v0.4c0,3.5-2.8,6.3-6.3,6.3h-3.4c-3.5,0-6.3-2.8-6.3-6.3V260
			C359,256.5,361.9,253.6,365.4,253.6z"/>
		<path class="st18" d="M441,337.5h5.1c3,0,5.5,2.5,5.5,5.5v2.1c0,3-2.5,5.5-5.5,5.5H441c-3,0-5.5-2.5-5.5-5.5V343
			C435.5,340,437.9,337.5,441,337.5z"/>
		<path class="st19" d="M468.8,355.6h4.8c3.1,0,5.6,2.5,5.6,5.6v1.8c0,3.1-2.5,5.6-5.6,5.6h-4.8c-3.1,0-5.6-2.5-5.6-5.6v-1.8
			C463.2,358.2,465.7,355.6,468.8,355.6z"/>
		<text transform="matrix(1 0 0 1 0 585.26)" class="st20 st21 st22">Monodesigns</text>
	</g>
</g>
</svg>
